<?xml version="1.0" encoding="utf-8"?>
<!-- Generator: Adobe Illustrator 25.2.1, SVG Export Plug-In . SVG Version: 6.00 Build 0)  -->
<svg version="1.1" id="图层_1" xmlns="http://www.w3.org/2000/svg" xmlns:xlink="http://www.w3.org/1999/xlink" x="0px" y="0px"
	 viewBox="0 0 200 200" style="enable-background:new 0 0 200 200;" xml:space="preserve">
<style type="text/css">
	.st0{fill:url(#SVGID_1_);}
	.st1{fill:#FFFFFF;}
</style>
<desc>Created with Sketch.</desc>
<linearGradient id="SVGID_1_" gradientUnits="userSpaceOnUse" x1="38.8314" y1="58.097" x2="230.2933" y2="187.8513">
	<stop  offset="0" style="stop-color:#3BAFE2"/>
	<stop  offset="1" style="stop-color:#3989C6"/>
</linearGradient>
<path class="st0" d="M172.2,199.9H28.8c-15.7,0-28.3-12.7-28.3-28.3V28.2c0-15.7,12.7-28.3,28.3-28.3h143.3
	c15.7,0,28.3,12.7,28.3,28.3v143.3C200.5,187.2,187.8,199.9,172.2,199.9z"/>
<g>
	<path class="st1" d="M164.6,28.2l-4.5-6l-3.4,6.6c-0.3,0.6-8.1,16.2-12.6,29.2c-9.9-7.9-22.5-12.9-36-14.4l-1-6.9
		c4.7-2.4,7.8-7.3,7.8-12.8c0-7.9-6.3-14.4-14.4-14.4c-7.9,0-14.4,6.5-14.4,14.4c0,5.5,3.1,10.3,7.8,12.8L93,43.7
		c-13.7,1.5-26.3,6.5-36,14.2c-4.7-13.1-12.3-28.4-12.6-29.2L41,22.1l-4.5,6c-1.3,1.8-1.8,4.4-1.5,12.4c0.3,4.5,0.8,10.2,1.6,17.4
		c1.3,10.7,2.7,20.8,3.4,24.2c-1.5,4.5-2.1,9-2.1,13.6c0,14.1,6.6,27.3,18.4,37.2c3.9,3.2,8.4,6,13.1,8.2c-1.5,7.1-2.6,15-1.3,20
		c0.8,3.7,2.4,6.3,4.4,7.9c0.3,0.3,0.8,0.6,1.1,0.8c1.3,0.8,2.7,1.3,4,1.5c0.5,6,1.5,11.6,3.6,14.5c0.2,0.3,0.8,1.1,1.6,1.9L83,188
		c0,0,0,0,0.2,0.2c1.1,1,2.6,1.8,4.5,1.8c0.6,0,1.6,0,2.7-0.6c0.3-0.2,0.8-0.3,1.1-0.6c2.3-1.8,3.4-5.3,3.6-10.7l0.3,0.2
		c3.2,1.1,8.2,3.2,13.6-0.5v0.3l-0.3,1.5c-0.3,5.2-0.6,9.4,4.4,10.3c0.3,0.2,1,0.2,1.5,0.2c0,0,0,0,0.2,0c1,0,1.8-0.2,2.3-0.5
		c0.3-0.2,0.6-0.3,1-0.6c2.4-1.5,3.9-4.7,5-10c0.5-2.3,0.8-5.5,1-9c0.3-0.2,0.6-0.2,1-0.3c0.2,0,0.2-0.2,0.3-0.2c0,0,0.2,0,0.2-0.2
		c2.3-1,5-3.6,6.3-9c1.1-4.8,0.2-12.1-1.3-18.9c5-2.3,9.7-5.2,14.1-8.4c12-9.7,18.6-23.1,18.6-37.2c0-4.7-0.8-9.2-2.1-13.6
		c0.6-3.6,2.1-13.7,3.4-24.2c0.8-7.3,1.5-13.1,1.6-17.4C166.4,32.3,165.9,29.8,164.6,28.2z M100.1,118c-2.4,0-4.7-0.3-6.9-1
		c-12-3.1-20.8-13.9-20.8-26.8c0-15.3,12.4-27.6,27.6-27.6c6.8,0,12.9,2.4,17.6,6.3l0.2,0.2c0.3,0.3,0.6,0.6,1,1
		c0.2,0.2,0.5,0.3,0.6,0.6c0.2,0.2,0.2,0.2,0.3,0.3c4.8,5,7.9,11.8,8.1,19.4C127.8,105.6,115.3,118,100.1,118z"/>
	<path class="st1" d="M95.6,71.7c-2.7,0-5.3,0.6-7.6,1.9l3.1,9l-8.6-4.2c-1.9,2.6-3.1,6-3.1,9.5c0,8.9,7.3,16.2,16.2,16.2
		s16.2-7.3,16.2-16.2S104.5,71.7,95.6,71.7z"/>
</g>
</svg>
