<?xml version="1.0" encoding="utf-8"?>
<!-- Generator: Adobe Illustrator 25.2.1, SVG Export Plug-In . SVG Version: 6.00 Build 0)  -->
<svg version="1.1" id="图层_1" xmlns="http://www.w3.org/2000/svg" xmlns:xlink="http://www.w3.org/1999/xlink" x="0px" y="0px"
	 viewBox="0 0 142.4 142.4" style="enable-background:new 0 0 142.4 142.4;" xml:space="preserve">
<style type="text/css">
	.st0{fill:url(#SVGID_1_);}
	.st1{fill:#3F4850;}
	.st2{fill:url(#SVGID_2_);}
	.st3{fill:url(#SVGID_3_);}
	.st4{fill:none;stroke:#231815;stroke-width:5;stroke-miterlimit:10;}
	.st5{fill:#D294FD;}
	.st6{fill:#F9F9FA;}
	.st7{fill:#E8E8E8;}
	.st8{fill:#FFFFFF;}
	.st9{fill:#231815;}
	.st10{fill:#231815;stroke:#221613;stroke-width:2;stroke-miterlimit:10;}
	.st11{fill:#385B95;}
	.st12{opacity:0.45;}
</style>
<g>
	
		<linearGradient id="SVGID_1_" gradientUnits="userSpaceOnUse" x1="42.1649" y1="730.8068" x2="125.354" y2="787.1843" gradientTransform="matrix(1 0 0 1 0 -700)">
		<stop  offset="0" style="stop-color:#52A3DA"/>
		<stop  offset="1" style="stop-color:#3359A6"/>
	</linearGradient>
	<path class="st0" d="M118.8,16.8c0,0-8.7,17.2-11.4,28.1C99.6,36.6,87.6,31,73.9,30.3L72.5,19c3.7-0.6,6.4-3.8,6.4-7.6
		c0-4.2-3.4-7.7-7.7-7.7s-7.7,3.4-7.7,7.7c0,3.8,2.8,7,6.4,7.6l-1.4,11.3C55,31,43,36.6,35.1,44.9c-2.8-10.8-11.4-28.1-11.4-28.1
		c-2.2,2.9,3.4,39.2,3.7,40.7c-1.1,3.2-1.8,6.8-1.8,10.3c0,20.7,20.5,37.6,45.6,37.6s45.6-16.8,45.6-37.6c0-3.6-0.6-7-1.8-10.3
		C115.4,56,121,19.8,118.8,16.8z"/>
	<path class="st1" d="M71.2,109.1c-13,0-25.3-4.2-34.6-11.8C27.2,89.5,22,79,22,67.9c0-3.6,0.6-7.1,1.7-10.7
		C23.2,54.6,22,46.5,21,38.1c-0.7-5.7-1.1-10.2-1.3-13.8c-0.3-6.4,0.1-8.4,1.1-9.8l3.6-4.7l2.7,5.2c0.3,0.6,6.3,12.7,10,23.1
		C44.7,32,54.7,28,65.5,26.9l0.7-5.4c-3.7-1.9-6.1-5.7-6.1-10.1C60,5.1,65.1,0,71.4,0s11.3,5.1,11.3,11.3c0,4.3-2.4,8.2-6.1,10.1
		l0.7,5.4C87.9,28,97.9,32,105.7,38.2c3.6-10.4,9.7-22.6,10-23.1l2.7-5.2l3.6,4.7c1,1.3,1.4,3.3,1.1,9.8c-0.2,3.4-0.7,8.1-1.3,13.8
		c-1,8.3-2.2,16.3-2.7,19.1c1.1,3.4,1.7,7,1.7,10.7c0,11.1-5.2,21.6-14.7,29.3C96.6,104.8,84.2,109.1,71.2,109.1z M28,35.1
		c0.1,1.1,0.2,2.2,0.4,3.4c1.1,9,2.4,17.5,2.6,18.5l0.1,0.9l-0.3,0.9c-1,3-1.6,6-1.6,9.1c0,18.7,18.8,33.9,42,33.9
		c23.1,0,42-15.2,42-33.9c0-3.1-0.6-6.1-1.6-9.1l-0.3-0.9l0.1-0.9c0.1-0.3,1.4-9.2,2.6-18.5c0.1-1.2,0.3-2.3,0.4-3.4
		c-1.4,3.7-2.8,7.4-3.7,10.7l-1.7,6.4l-4.6-4.9c-7.4-7.9-18.8-12.8-31-13.5h-2.3L68.8,34c-12.2,0.6-23.6,5.4-31,13.5l-4.6,4.9
		l-1.6-6.6C30.8,42.7,29.4,38.9,28,35.1z M115.5,18.3L115.5,18.3L115.5,18.3z M27,18.3L27,18.3z M71.2,7.3c-2.2,0-4.1,1.8-4.1,4.1
		c0,2,1.4,3.7,3.4,4l0.7,0.1l0.7-0.1c2-0.3,3.4-2,3.4-4C75.4,9.1,73.5,7.3,71.2,7.3z"/>
</g>
<g>
	<g>
		
			<linearGradient id="SVGID_2_" gradientUnits="userSpaceOnUse" x1="47.4808" y1="815.748" x2="94.4235" y2="815.748" gradientTransform="matrix(1 0 0 1 0 -700)">
			<stop  offset="0" style="stop-color:#CB89FF"/>
			<stop  offset="1" style="stop-color:#7800F7"/>
		</linearGradient>
		<path class="st2" d="M89.5,91c0,0-6.8,1.1-8.3,0.7c-1.7-0.4-2.2,0.7-2.3,2.4c-2-0.6-4-1.1-4.7-0.9c-1.3,0.4-7,0.1-9.6,1.2
			c-0.4,0.2-0.9,0.3-1.6,0.6c0-1.9-0.6-3.2-2.3-2.8c-1.6,0.4-8.3-0.7-8.3-0.7s-6.4,19.6-4.6,27.9c1.3,5.9,5.2,6.4,7.3,6.3
			c0.2,4.9,0.9,9.9,2.7,12.5c0,0,1.3,2.2,3.6,2.2c0,0,3.6,0.8,3.6-7.9c0-0.6,0.2-1,0.7-1.3c0.4-0.3,1-0.4,1.4-0.2h0.1
			c2.4,0.9,6.1,2.8,10.1-0.2c0,0,3.1-2.6,2.8,2.3c-0.3,4.9-0.7,6.8,1.8,7.3c2.8,0.6,4.4-1.6,5.7-7c0.6-2.8,0.8-5.6,0.7-8.3
			c0.8-0.1,1.4-0.2,2.1-0.6c1.6-0.8,3.2-2.4,3.9-5.8C95.9,110.6,89.5,91,89.5,91L89.5,91z"/>
		<path class="st1" d="M82.6,142.4c-0.4,0-0.8,0-1.2-0.1c-1.8-0.3-2.8-1.4-3.2-3.1c-0.2-1.2-0.1-2.8,0-4.9c0-0.3,0-0.8,0.1-1.2
			c0-0.3,0-0.7,0-0.9l0,0c-1.9,1.3-3.9,2-6.1,1.9c-1.8-0.1-3.4-0.7-4.7-1.2c-0.2-0.1-0.3-0.1-0.6-0.2l0,0h-0.1
			c0,4.4-0.9,7.2-2.8,8.7c-1.1,0.9-2.2,0.9-2.8,0.9c-2.4-0.1-4.2-1.9-4.9-3c-1.6-2.2-2.4-6.1-2.9-11.7c-1-0.1-2.1-0.4-3.2-1.1
			c-2.1-1.3-3.4-3.4-4.1-6.6c-0.8-3.7-0.3-9.7,1.6-17.8c1.3-5.9,3-10.8,3-11l0.4-1.4l1.4,0.2c0,0,1.7,0.2,3.4,0.4
			c3.2,0.4,4.1,0.2,4.1,0.2l0,0c1.6-0.4,2.4,0,3.1,0.4c0.4,0.3,0.9,0.9,1.1,1.6c1.8-0.6,4.2-0.7,6.4-0.8c1,0,2.3-0.1,2.7-0.2
			c0.7-0.2,1.7-0.2,3.9,0.3c0.2-0.7,0.7-1.1,1.1-1.4c0.6-0.4,1.6-0.9,3-0.4c0.1,0,0.9,0.2,4.2-0.2c1.8-0.2,3.4-0.4,3.4-0.4l1.4-0.2
			l0.4,1.4c0.1,0.2,1.7,5,3,11c1.9,8.1,2.4,14.1,1.7,17.8c-0.4,1.8-1,3.3-1.9,4.4c-0.8,1.1-1.8,1.9-2.9,2.4l0,0
			c-0.3,0.2-0.8,0.3-1.1,0.4c0,2.4-0.3,4.9-0.8,7.2l0,0c-0.9,4.1-2.1,6.6-3.9,7.7C84.5,142.2,83.6,142.4,82.6,142.4z M81.7,138.7
			c0,0,0.1,0.1,0.4,0.1c0.7,0.1,1,0,1.2-0.1c0.7-0.4,1.6-1.7,2.3-5.4c0.4-2.6,0.8-5.2,0.7-7.9v-1.6l1.6-0.1c0.6,0,1-0.2,1.6-0.4
			c1.4-0.7,2.4-2.2,3-4.6c0.4-2.2,0.6-6.8-1.7-16.2c-0.9-3.9-1.9-7.4-2.6-9.3c-0.7,0.1-1.3,0.2-2.1,0.3c-3.7,0.4-4.8,0.3-5.4,0.1
			c0,0.1-0.1,0.3-0.1,0.8v2.3L78.4,96c-2.7-0.8-3.4-0.9-3.7-0.9c-0.8,0.2-1.8,0.3-3.6,0.3c-1.9,0.1-4.6,0.2-5.8,0.8
			c-0.4,0.2-1,0.3-1.7,0.7l-2.4,0.7V95c0-0.6,0-0.9-0.1-1c-0.7,0.2-1.8,0.3-5.4-0.1c-0.8-0.1-1.6-0.2-2.1-0.3
			c-0.6,1.9-1.6,5.3-2.6,9.3c-2.2,9.4-2.1,14-1.6,16.2c0.8,3.4,2.7,5.2,5.6,5l1.8-0.1l0.1,1.8c0.3,7.2,1.4,10.2,2.3,11.6v0.1
			c0.1,0.1,0.9,1.3,2.1,1.3h0.2l0,0c0.1,0,0.3-0.2,0.6-0.6c0.3-0.6,1-2.1,1-5.7c0-1.1,0.6-2.1,1.3-2.7s1.8-0.8,2.7-0.6h0.1l0.2,0.1
			c0.3,0.1,0.6,0.2,0.9,0.3c1.1,0.4,2.3,0.9,3.7,1c1.4,0.1,2.7-0.3,3.8-1.2c0.4-0.3,2.2-1.6,3.9-0.7c1.9,1,1.8,3.7,1.7,4.6
			c0,0.4,0,0.8-0.1,1.2c-0.1,1.3-0.2,2.4-0.1,3.2C81.6,138.5,81.7,138.7,81.7,138.7L81.7,138.7z"/>
	</g>
	<path class="st1" d="M54.6,127.6c-3.7,0-7.6-2.1-8.8-8c-2-8.9,4.4-28.7,4.8-29.2l0.7-1.3l1.4,0.2c3,0.6,6.7,0.9,7.6,0.8
		c1.8-0.7,3.7,0.2,4.3,2c1.8-0.6,4.1-0.7,6.2-0.8c0.9,0,1.8-0.1,2.6-0.2c0.7-0.2,1.7-0.3,3.8,0.2c0.2-0.6,0.7-1,1.1-1.3
		c0.9-0.7,2.1-0.9,3.2-0.6c0.8,0.2,4.6-0.2,7.6-0.8l1.4-0.2l0.7,1.3c0.2,0.6,6.8,20.3,4.8,29.2c-1,4.3-3.2,6.3-5,7.1
		c-1.1,0.6-2.3,0.8-3.4,0.8l-0.1-4.1c0.7,0,1.3-0.1,1.9-0.4c1.3-0.7,2.3-2.1,2.8-4.3c1.3-6-2.3-21.9-3.8-25.2
		c-2.3,0.3-5.8,0.8-7.4,0.4c0,0.1,0,0.2,0,0.4l-0.1,2.7l-2.6-0.8c-2.4-0.8-3.3-0.8-3.6-0.8C73.4,94.9,72.2,95,71,95
		c-1.9,0.1-4.4,0.2-5.7,0.8c-0.4,0.2-1,0.3-1.6,0.7l-2.8,1v-3c0-0.2,0-0.4,0-0.7c-1.7,0.3-5.1-0.1-7.4-0.4
		c-1.6,3.3-5.1,19.2-3.8,25.2c0.8,3.6,2.8,5.2,5.8,4.7h0.8l0.1,4.1H56C55.6,127.5,55,127.6,54.6,127.6L54.6,127.6z"/>
	<path class="st1" d="M82.5,142.4c-0.4,0-0.9,0-1.2-0.1c-3.9-0.8-3.7-4.1-3.4-8.2l0.1-1.2v-0.3c-4.2,2.9-8.2,1.3-10.7,0.4l-0.3-0.1
		c-0.1,4.2-1,7-2.8,8.4c-0.8,0.7-1.9,1-3,0.9c-3-0.1-4.8-2.6-5.1-3.1c-4.3-6.3-2.9-28.5-2.8-30.5c0.1-1.1,1.1-2,2.2-1.9
		c1.1,0.1,2,1.1,1.9,2.2c0,0-0.4,9-0.3,14.3c0.2,9,1.6,12.3,2.3,13.6l0.1,0.1c0,0,0.8,1.2,1.8,1.2h0.2c0.3-0.2,1.3-1.6,1.3-5.9
		c0-1.2,0.6-2.2,1.6-3c0.9-0.7,2.1-0.9,3.2-0.6h0.1c0.3,0.1,0.6,0.2,0.9,0.3c2.3,0.9,4.7,1.7,7.2-0.2c0.4-0.3,2.3-1.7,4.2-0.8
		c2.1,1.1,1.9,3.9,1.9,4.9l-0.1,1.2c-0.1,1.6-0.2,3.4,0,4c0.1,0,0.1,0,0.2,0.1c0.3,0.1,0.7,0.1,1-0.1c0.6-0.3,1.4-1.4,2.2-5.3
		c1.1-5.1,0.9-16.6-0.4-23.1c-0.2-0.8,0-1.4,0.6-2s1.3-0.7,2-0.4c0.7,0.2,1.2,0.9,1.3,1.6c1.4,7.1,1.7,19.1,0.4,24.8
		c-0.9,4.2-2.1,6.7-4,7.9C84.5,142.1,83.5,142.4,82.5,142.4L82.5,142.4z"/>
	<path class="st1" d="M68.8,121.2"/>
	<path class="st1" d="M68.5,119.3"/>
</g>
<linearGradient id="SVGID_3_" gradientUnits="userSpaceOnUse" x1="42.5176" y1="731.9086" x2="125.7067" y2="788.2861" gradientTransform="matrix(1 0 0 1 0 -700)">
	<stop  offset="0" style="stop-color:#CB89FF"/>
	<stop  offset="1" style="stop-color:#7800F7"/>
</linearGradient>
<path class="st3" d="M119.2,17.9c0,0-8.7,17.2-11.4,28.1C100,37.7,88,32.1,74.3,31.4l-1.4-11.3c3.7-0.6,6.4-3.8,6.4-7.6
	c0-4.2-3.4-7.7-7.7-7.7c-4.2,0-7.7,3.4-7.7,7.7c0,3.8,2.8,7,6.4,7.6l-1.4,11.3C55.3,32.1,43.3,37.7,35.4,46
	C32.7,35.2,24,17.9,24,17.9c-2.2,2.9,3.4,39.2,3.7,40.7c-1.1,3.2-1.8,6.8-1.8,10.3c0,20.7,20.5,37.6,45.6,37.6S117,89.7,117,68.9
	c0-3.6-0.6-7-1.8-10.3C115.7,57.2,121.4,20.9,119.2,17.9z"/>
<path class="st4" d="M71.4,98.9"/>
<circle class="st5" cx="71.2" cy="11.6" r="8.7"/>
<g>
	<circle class="st6" cx="71" cy="63.6" r="21.8"/>
	<path class="st7" d="M79.6,43.6c5.8,3.9,9.6,10.6,9.6,18c0,12-9.8,21.8-21.8,21.8c-3,0-5.9-0.6-8.4-1.7c3.4,2.3,7.7,3.8,12.2,3.8
		c12,0,21.8-9.8,21.8-21.8C92.8,54.6,87.4,46.9,79.6,43.6z"/>
	<ellipse transform="matrix(0.5592 -0.829 0.829 0.5592 -19.4257 71.1581)" class="st8" cx="57.2" cy="53.8" rx="4.6" ry="1.8"/>
	<g>
		<circle class="st9" cx="67.5" cy="61.7" r="12.8"/>
		<path class="st8" d="M67.5,74.6c-7.1,0-13-5.8-13-13s5.8-13,13-13s13,5.8,13,13S74.6,74.6,67.5,74.6z M67.5,49
			c-7,0-12.7,5.7-12.7,12.7s5.7,12.7,12.7,12.7s12.7-5.7,12.7-12.7S74.5,49,67.5,49z"/>
	</g>
</g>
<path class="st10" d="M78.9,109.7"/>
<path class="st11" d="M75.5,4c1.2,1.4,1.9,3.3,1.9,5.4c0,4.8-3.9,8.7-8.7,8.7c-1.6,0-2.9-0.3-4.2-1.1c1.6,2,4,3.2,6.8,3.2
	c4.8,0,8.7-3.9,8.7-8.7C79.9,8.3,78.1,5.4,75.5,4z"/>
<g class="st12">
	<path class="st11" d="M118.8,18.3c0,0-3.3,6.7-6.6,14.3c-1.1,9.7-2.7,19-2.8,19.8c1.1,3.2,1.8,6.8,1.8,10.3
		c0,20.7-20.3,37.5-45.6,37.5c-13.7,0-26-5-34.3-12.9c7.8,11.7,22.8,19.6,40,19.6c25.2,0,45.6-16.8,45.6-37.6c0-3.6-0.6-7-1.8-10.3
		C115.4,57.6,121,21.2,118.8,18.3z"/>
</g>
<polygon class="st6" points="60.9,48.7 64,57.6 55.6,53.4 "/>
</svg>
