<?xml version="1.0" encoding="utf-8"?>
<!-- Generator: Adobe Illustrator 25.2.1, SVG Export Plug-In . SVG Version: 6.00 Build 0)  -->
<svg version="1.1" id="图层_1" xmlns="http://www.w3.org/2000/svg" xmlns:xlink="http://www.w3.org/1999/xlink" x="0px" y="0px"
	 viewBox="0 0 42 42" style="enable-background:new 0 0 42 42;" xml:space="preserve">
<style type="text/css">
	.st0{fill:url(#SVGID_1_);}
	.st1{fill:url(#SVGID_2_);}
	.st2{fill:url(#SVGID_3_);}
	.st3{fill:url(#SVGID_4_);}
	.st4{fill:url(#SVGID_5_);}
	.st5{fill:url(#SVGID_6_);}
	.st6{fill:url(#SVGID_7_);}
</style>
<g>
	<g>
		<path d="M2.7,18.6v5h3.1v0.8H1.8v-5.8H2.7z"/>
		<path d="M10,20.7c1.2,1.3,0.4,3.9-1.5,3.8c-2,0.1-2.7-2.5-1.5-3.8C7.6,19.9,9.3,19.9,10,20.7z M7.6,21.3c-0.9,1.3,0.4,3.4,1.8,2
			c0.4-0.5,0.4-1.5,0-2C9,20.7,8,20.7,7.6,21.3z"/>
		<path d="M12,20.2l0.8,3.1l0.8-3.1h0.9l0.8,3.1l0.8-3.1h1l-1.4,4.2h-0.9L14,21.3l-0.8,3.1h-0.9l-1.4-4.2H12z"/>
		<path d="M24.7,19c0.4,0.3,0.7,0.8,0.8,1.4h-0.9c-0.2-1.3-2.2-1.4-2.9-0.5c-0.6,0.7-0.6,2.5,0,3.1c0.4,0.6,1.8,0.8,2.4,0.3
			c0.3-0.2,0.5-0.6,0.6-1h0.9c-0.2,2.2-3.5,2.8-4.7,1.2c-0.8-1-0.8-3.2,0-4.2C21.6,18.4,23.7,18.2,24.7,19z"/>
		<path d="M29.8,20.7c1.2,1.3,0.4,3.9-1.5,3.8c-2,0.1-2.7-2.5-1.5-3.8C27.4,19.9,29.1,19.9,29.8,20.7z M27.4,21.3
			c-0.9,1.3,0.4,3.4,1.8,2c0.4-0.5,0.4-1.5,0-2C28.8,20.7,27.7,20.7,27.4,21.3z"/>
		<path d="M35.1,18.5v5.9h-0.9V24c-1.2,1.4-3.4,0.1-3.2-1.7c-0.2-1.7,2-3.1,3.1-1.5v-2.3H35.1z M32.2,21.3c-0.3,0.4-0.3,1.6,0,2.1
			c0.3,0.6,1.4,0.6,1.7,0c0.4-0.5,0.4-1.7-0.1-2.1C33.5,20.7,32.5,20.8,32.2,21.3z"/>
		<path d="M39.4,20.8c0.3,0.4,0.5,1,0.5,1.8h-3.1c0,1,1,1.5,1.8,1c0.1-0.1,0.3-0.3,0.4-0.5h0.9c-0.1,0.4-0.3,0.7-0.6,1
			c-2.3,1.7-4.6-1.2-2.9-3.3C37,19.8,38.8,19.9,39.4,20.8z M37.1,21.1c-0.2,0.2-0.3,0.4-0.3,0.8h2.2C38.9,20.9,37.8,20.5,37.1,21.1z
			"/>
	</g>
	<g>
		<linearGradient id="SVGID_1_" gradientUnits="userSpaceOnUse" x1="1.8096" y1="21.5187" x2="39.9033" y2="21.5187">
			<stop  offset="0" style="stop-color:#D697FF"/>
			<stop  offset="1" style="stop-color:#7B01FA"/>
		</linearGradient>
		<path class="st0" d="M2.7,18.6v5h3.1v0.8H1.8v-5.8H2.7z"/>
		<linearGradient id="SVGID_2_" gradientUnits="userSpaceOnUse" x1="1.8096" y1="21.5187" x2="39.9033" y2="21.5187">
			<stop  offset="0" style="stop-color:#D697FF"/>
			<stop  offset="1" style="stop-color:#7B01FA"/>
		</linearGradient>
		<path class="st1" d="M10,20.7c1.2,1.3,0.4,3.9-1.5,3.8c-2,0.1-2.7-2.5-1.5-3.8C7.6,19.9,9.3,19.9,10,20.7z M7.6,21.3
			c-0.9,1.3,0.4,3.4,1.8,2c0.4-0.5,0.4-1.5,0-2C9,20.7,8,20.7,7.6,21.3z"/>
		<linearGradient id="SVGID_3_" gradientUnits="userSpaceOnUse" x1="1.8096" y1="21.5187" x2="39.9033" y2="21.5187">
			<stop  offset="0" style="stop-color:#D697FF"/>
			<stop  offset="1" style="stop-color:#7B01FA"/>
		</linearGradient>
		<path class="st2" d="M12,20.2l0.8,3.1l0.8-3.1h0.9l0.8,3.1l0.8-3.1h1l-1.4,4.2h-0.9L14,21.3l-0.8,3.1h-0.9l-1.4-4.2H12z"/>
		<linearGradient id="SVGID_4_" gradientUnits="userSpaceOnUse" x1="1.8096" y1="21.5187" x2="39.9033" y2="21.5187">
			<stop  offset="0" style="stop-color:#D697FF"/>
			<stop  offset="1" style="stop-color:#7B01FA"/>
		</linearGradient>
		<path class="st3" d="M24.7,19c0.4,0.3,0.7,0.8,0.8,1.4h-0.9c-0.2-1.3-2.2-1.4-2.9-0.5c-0.6,0.7-0.6,2.5,0,3.1
			c0.4,0.6,1.8,0.8,2.4,0.3c0.3-0.2,0.5-0.6,0.6-1h0.9c-0.2,2.2-3.5,2.8-4.7,1.2c-0.8-1-0.8-3.2,0-4.2C21.6,18.4,23.7,18.2,24.7,19z
			"/>
		<linearGradient id="SVGID_5_" gradientUnits="userSpaceOnUse" x1="1.8096" y1="21.5187" x2="39.9033" y2="21.5187">
			<stop  offset="0" style="stop-color:#D697FF"/>
			<stop  offset="1" style="stop-color:#7B01FA"/>
		</linearGradient>
		<path class="st4" d="M29.8,20.7c1.2,1.3,0.4,3.9-1.5,3.8c-2,0.1-2.7-2.5-1.5-3.8C27.4,19.9,29.1,19.9,29.8,20.7z M27.4,21.3
			c-0.9,1.3,0.4,3.4,1.8,2c0.4-0.5,0.4-1.5,0-2C28.8,20.7,27.7,20.7,27.4,21.3z"/>
		<linearGradient id="SVGID_6_" gradientUnits="userSpaceOnUse" x1="1.8096" y1="21.5187" x2="39.9033" y2="21.5187">
			<stop  offset="0" style="stop-color:#D697FF"/>
			<stop  offset="1" style="stop-color:#7B01FA"/>
		</linearGradient>
		<path class="st5" d="M35.1,18.5v5.9h-0.9V24c-1.2,1.4-3.4,0.1-3.2-1.7c-0.2-1.7,2-3.1,3.1-1.5v-2.3H35.1z M32.2,21.3
			c-0.3,0.4-0.3,1.6,0,2.1c0.3,0.6,1.4,0.6,1.7,0c0.4-0.5,0.4-1.7-0.1-2.1C33.5,20.7,32.5,20.8,32.2,21.3z"/>
		<linearGradient id="SVGID_7_" gradientUnits="userSpaceOnUse" x1="1.8096" y1="21.5187" x2="39.9033" y2="21.5187">
			<stop  offset="0" style="stop-color:#D697FF"/>
			<stop  offset="1" style="stop-color:#7B01FA"/>
		</linearGradient>
		<path class="st6" d="M39.4,20.8c0.3,0.4,0.5,1,0.5,1.8h-3.1c0,1,1,1.5,1.8,1c0.1-0.1,0.3-0.3,0.4-0.5h0.9c-0.1,0.4-0.3,0.7-0.6,1
			c-2.3,1.7-4.6-1.2-2.9-3.3C37,19.8,38.8,19.9,39.4,20.8z M37.1,21.1c-0.2,0.2-0.3,0.4-0.3,0.8h2.2C38.9,20.9,37.8,20.5,37.1,21.1z
			"/>
	</g>
</g>
</svg>
